<svg xmlns="http://www.w3.org/2000/svg" width="90" height="90" viewBox="0 0 90 90">
    <g fill="none" fill-rule="evenodd">
        <path fill="#FFF" d="M45.184 89.763C20.462 89.763.421 69.722.421 45 .421 20.278 20.462.237 45.184.237 69.906.237 89.947 20.278 89.947 45c-.029 24.71-20.053 44.734-44.763 44.763z"/>
        <path fill="#9D979B" fill-rule="nonzero" d="M13.774 60.305l-1.358-3.158-3.527 1.364c-.826.336-1.763.647-2.631.22l-.158-.368-1.69.726.327.764.937-.4 1.473 3.452-.931.4.331.774 1.695-.726-.247-.574 5.779-2.474zm-7.095-.631a3.89 3.89 0 0 0 2.558-.348l2.742-1.105.674 1.579-5 2.147-.974-2.273zM14.884 66.6c1.316-.832 1.832-1.579.79-3.221-1.042-1.642-1.937-1.484-3.248-.653l-2.105 1.321c-1.31.832-1.826 1.58-.784 3.216 1.042 1.637 1.937 1.495 3.247.658l2.1-1.321zm-4.637.226c-.71-1.115-.39-1.431.558-2.026l2.106-1.337c.947-.6 1.384-.768 2.105.348.72 1.115.368 1.442-.58 2.036l-2.104 1.337c-.958.6-1.38.758-2.085-.342v-.016zM16.547 69.432l-.61-.706 1.51-1.31 1.721 1.984.616-.526-2.31-2.658-5.369 4.631 1.206 1.39c.936 1.084 1.989 1.295 3.094.337 1.106-.958 1.084-2.048.142-3.142zm-.7 2.479c-.59.526-1.179.584-1.873-.211l-.627-.716 1.958-1.71.627.726c.694.795.51 1.395-.085 1.91zM22.058 74.584l.526-.584c.937-1.053.684-1.958-.252-2.774L20.874 70l-4.653 5.347.658.569 1.542-1.78.779.67c1.095.952 1.9.878 2.858-.222zm-2.31-.405l-.8-.674 2.026-2.331.773.673c.564.553.78.848.137 1.58l-.526.584c-.595.726-1.021.678-1.61.168zM26.521 74.242c-1.637-1.053-2.384-.526-3.216.79l-1.32 2.079c-.832 1.315-.985 2.205.657 3.247 1.642 1.042 2.384.526 3.216-.784l1.326-2.106c.832-1.29.984-2.205-.663-3.226zm-.079 2.763l-1.331 2.106c-.6.942-.911 1.263-2.027.557-1.116-.705-.963-1.131-.363-2.073l1.337-2.106c.6-.947.92-1.284 2.037-.578 1.116.705.952 1.152.347 2.094zM31.005 76.742l-1.626-.71-2.847 6.494 1.679.742c1.331.58 2.373.306 2.978-1.052a1.579 1.579 0 0 0-.489-2.105c.589.02 1.12-.348 1.31-.906.427-1.016.274-1.9-1.005-2.463zm-.642 5.1c-.331.747-.82 1.095-1.8.663l-.884-.384 1.005-2.279.905.4c.758.332 1.137.769.774 1.6zm.842-2.99a1.016 1.016 0 0 1-1.473.527l-.727-.316.848-1.926.82.363a.874.874 0 0 1 .532 1.353zM36.195 78.484c-1.884-.526-2.437.216-2.837 1.721l-.637 2.384c-.4 1.5-.279 2.395 1.579 2.9 1.858.506 2.437-.215 2.837-1.715l.637-2.385c.42-1.505.3-2.4-1.58-2.905zm.752 2.669l-.631 2.4c-.29 1.084-.495 1.484-1.769 1.147-1.273-.337-1.258-.79-.968-1.874l.632-2.405c.289-1.079.526-1.505 1.773-1.163 1.248.342 1.253.81.963 1.895z"/>
        <path fill="#9D979B" d="M39.805 83.1c-.152 1.426-.21 2.663-1.526 2.447l-.09.842c2.069.311 2.258-1.131 2.474-3.189l.321-2.853 1.916.195-.632 6.226.89.074.71-7.053-3.652-.373-.41 3.684zM46.232 86.042l-.11-2.553 2.441-.105-.037-.82-2.442.104-.09-2.12 2.695-.122-.031-.773-3.569.158.311 7.084 3.795-.169-.032-.815zM55.021 84.932c-.395-2.069-.784-4.106-1.179-6.153l-.884.168c.395 2.048.784 4.085 1.179 6.153l-2.253.432-1.179-6.153-.858.168 1.337 6.958 3.81-.731.19.994.832-.163-.348-1.8-.647.127z"/>
        <path fill="#9D979B" fill-rule="nonzero" d="M61.926 77.821c-.568-1.305-1.473-1.463-2.631-.974l-1.742.769 2.826 6.51.8-.347-.937-2.158.947-.41c1.327-.574 1.611-1.343 1.053-2.68l-.316-.71zm-1.052 2.632l-.942.41-1.227-2.837.942-.41c.737-.263 1.095-.332 1.485.563l.305.71c.384.885.142 1.243-.569 1.553l.006.01zM67.063 75.163c-.826-1.316-1.579-1.831-3.21-.8-1.632 1.032-1.5 1.921-.674 3.237l1.31 2.105c.827 1.316 1.58 1.837 3.216.806 1.637-1.032 1.495-1.932.669-3.243l-1.31-2.105zm.2 4.637c-1.116.7-1.426.379-2.02-.568l-1.322-2.106c-.595-.947-.763-1.384.358-2.105 1.121-.721 1.437-.363 2.032.584l1.32 2.106c.595.963.758 1.384-.368 2.089z"/>
        <path fill="#9D979B" d="M72.658 73.905c.737.848.774 1.169-.126 1.953s-1.332.568-2.064-.274l-1.579-1.826c-.731-.847-.91-1.28 0-2.105.911-.827 1.274-.595 1.843.042l.642-.558c-.91-1.021-1.632-1.305-3.016-.1-1.384 1.205-1.158 2.105-.137 3.279l1.579 1.816c1.021 1.168 1.721 1.684 3.279.326 1.558-1.358 1.116-2.105.216-3.121l-.637.568zM77.368 68.753l-.526.636c.853.727.937 1.053.163 1.948-.773.895-1.226.768-2.105.042L73.047 69.8c-.852-.726-1.094-1.121-.3-2.063.795-.942 1.169-.78 1.827-.232l.552-.652c-1.052-.874-1.81-1.053-3 .358-1.19 1.41-.826 2.263.358 3.268l1.837 1.579c1.184 1.005 1.953 1.405 3.29-.174 1.336-1.579.778-2.247-.243-3.131zM75.8 62.068l3.363 4.9-1.99-1.379-2.568-1.584-.458.742 6.037 3.727.432-.695-3.11-4.663 1.947 1.258 2.363 1.458.458-.743-6.037-3.726zM78.047 57.368l4.048 4.348-2.169-1.063-2.773-1.195-.342.8 6.515 2.8.327-.753-3.769-4.147 2.121.953 2.548 1.094.342-.8-6.521-2.794z"/>
        <path fill="#9D979B" fill-rule="nonzero" d="M11.537 40.484c.184-1.442-.38-2.363-1.874-2.552a1.579 1.579 0 0 0-1.852 1.052 1.353 1.353 0 0 0-1.248-1.005c-1.095-.116-1.895.284-2.068 1.668l-.221 1.758 7.037.884.226-1.805zm-4.158-.347l-.1.784-2.105-.263.115-.89c.09-.72.411-.99 1.148-.894a1.021 1.021 0 0 1 .931 1.263h.01zm3.332.226l-.122.958-2.468-.31.121-.985c.105-.82.416-1.31 1.321-1.2.81.121 1.28.48 1.148 1.537z"/>
        <path fill="#9D979B" d="M7.368 36.242l2.316.647c1.49.427 2.358.469 2.916-1.52.558-1.99-.21-2.353-1.526-2.727l-.227.8c1.053.305 1.285.558.958 1.7-.326 1.142-.794 1.205-1.873.905L7.6 35.39c-1.053-.305-1.463-.563-1.132-1.747.332-1.184.737-1.195 1.58-.968l.23-.827c-1.32-.352-2.104-.194-2.578 1.58-.474 1.773.19 2.394 1.668 2.815zM15.047 28.953l-.747-.332-1.195 2.679-2.331-1.042.994-2.232-.747-.331-.995 2.231-1.947-.863 1.1-2.468-.705-.316-1.453 3.263 6.479 2.884z"/>
        <path fill="#9D979B" fill-rule="nonzero" d="M15.921 27.495l-1.995-1.242.527-.874c.768-1.232.568-2.016-.674-2.79l-.621-.41c-1.205-.753-2.042-.363-2.7.69l-1 1.615 6.016 3.753.447-.742zm-2.705-1.706l-2.632-1.631.527-.874c.452-.637.715-.9 1.536-.384l.658.41c.827.527.837.943.427 1.58l-.516.9zM14.3 21.205l1.874 1.58c1.179 1.004 2.042 1.283 3.3-.196 1.258-1.478.858-2.284-.316-3.289l-1.874-1.61c-1.179-.98-2.02-1.258-3.305.205-1.284 1.463-.858 2.305.321 3.31zm.284-2.784c.858-1.005 1.269-.779 2.105-.047L18.59 20c.853.726 1.127 1.084.269 2.105s-1.253.784-2.105.053l-1.885-1.632c-.852-.726-1.142-1.09-.284-2.105z"/>
        <path fill="#9D979B" d="M20 18.458c1.01 1.174 1.705 1.69 3.274.342 1.568-1.347 1.126-2.105.237-3.121l-.632.526c.726.848.763 1.169-.142 1.948-.905.779-1.337.584-2.069-.258l-1.579-1.837c-.731-.847-.905-1.28 0-2.105.906-.827 1.274-.585 1.843.058l.647-.558c-.91-1.053-1.632-1.31-3.021-.121-1.39 1.19-1.169 2.105-.158 3.29l1.6 1.836zM24.268 14.91c.821 1.322 1.432 1.937 3.158.837 1.727-1.1 1.432-1.884.71-3.042l-.71.442c.59.948.58 1.274-.437 1.9-1.015.627-1.4.358-1.994-.594l-1.284-2.058c-.59-.948-.7-1.4.342-2.053s1.352-.384 1.81.337l.721-.453c-.737-1.152-1.405-1.547-2.963-.573-1.558.973-1.474 1.9-.653 3.22l1.3 2.038zM30.79 13.868l.126-5.605.873 2.153 1.1 2.547.8-.347-2.81-6.521-.758.331-.058 5.942-.837-2.268-1.194-2.774-.806.348 2.81 6.52zM35.495 12.063l.963-5.516.547 2.253.7 2.684.848-.22-1.8-6.864-.8.21-.948 5.869-.49-2.368-.768-2.922-.842.222 1.8 6.857zM34.853 4.484c.763-.205 1.242-.652 1.052-1.52l-.71.183c.1.427-.121.59-.484.685-.364.094-.669.073-.785-.348l-.694.18c.21.868.852 1.02 1.62.82zM39.232 8.742c.163 1.542.447 2.363 2.5 2.147 2.052-.215 2.105-1.052 1.968-2.436l-.832.09c.116 1.115-.031 1.4-1.226 1.52-1.195.121-1.416-.29-1.531-1.405l-.253-2.41c-.121-1.116 0-1.58 1.205-1.7 1.205-.122 1.384.241 1.48 1.094l.852-.09c-.163-1.363-.59-2.01-2.416-1.815-1.826.195-2.163 1.052-2 2.631l.253 2.374zM48.095 5.684c.205-.526.316-1.284 1.052-1.168l.085-.805c-1.221-.216-1.58.7-1.958 1.657-.263.658-.527 1.348-1.19 1.321h-.342l.121-3.12-.868-.037-.258 7.079.874.031.12-3.158h.527l1.858 3.237 1.052.042-2.105-3.568a3.026 3.026 0 0 0 1.032-1.51zM53.737 6.463l-.48 2.274-.515 2.72.858.164 1.316-6.968-.81-.153-3.37 4.89.57-2.348.562-2.968-.857-.163-1.316 6.973.8.153zM57.537 12.916l.826.29L60.705 6.5l-.779-.274-4.068 4.342.92-2.242.996-2.847-.827-.295-2.342 6.705.774.274 3.884-4.047-.81 2.179zM59.09 5.505c.742.263 1.389.158 1.7-.69l-.695-.241c-.158.41-.432.42-.784.3-.353-.121-.595-.316-.458-.732l-.674-.242c-.284.837.153 1.363.91 1.605zM64.147 12.632l.469.3v3.726l.91.574-.047-4.143c.618-.1 1.19-.388 1.637-.826.442-.358.916-.952 1.505-.484l.474-.658c-.953-.795-1.716-.179-2.527.463-.557.437-1.142.895-1.694.527l-.285-.18L66.253 9.3l-.737-.463-3.784 6 .742.468 1.673-2.673z"/>
        <path fill="#9D979B" fill-rule="nonzero" d="M67.321 15.7c-1.016 1.168-1.3 2.026.168 3.305 1.469 1.28 2.28.874 3.295-.294l1.621-1.869c1.016-1.174 1.306-2.031-.163-3.31-1.468-1.28-2.284-.874-3.3.294l-1.62 1.874zm2.295-1.295c.731-.847 1.105-1.131 2.105-.263 1 .869.768 1.274.026 2.105l-1.626 1.88c-.732.847-1.095 1.12-2.105.252-1.01-.868-.78-1.263-.042-2.105l1.642-1.869z"/>
        <path fill="#9D979B" d="M70.49 21.832l2.268-1.921 1.531 1.81-2.263 1.916.558.663 5.39-4.558-.563-.663-2.485 2.105-1.531-1.81 2.49-2.106-.574-.679-5.395 4.564zM73.637 25.868l2.679-1.657.29.473-1.643 3.348.569.915 1.773-3.747a2.99 2.99 0 0 0 1.832 0c.558-.126 1.242-.453 1.579.221l.716-.379c-.527-1.131-1.464-.916-2.469-.69-.695.148-1.42.306-1.768-.252l-.18-.284 2.659-1.648-.458-.742-6.058 3.7.479.742zM77.332 29.763c-.71.074-.806-.316-.827-.726l-.731.152c.031 1.111.526 1.58 1.658 1.427l1.052-.132 5.263-.458-.384-.873-2.195.231c-.594.058-1.194.148-1.779.253l1.343-1.137 1.684-1.479-.4-.905-3.88 3.547-.804.1z"/>
        <path fill="#9D979B" fill-rule="nonzero" d="M77.668 34.274l2.258-.648.285.985c.405 1.394 1.126 1.763 2.526 1.363l.742-.216c1.363-.395 1.637-1.274 1.29-2.469l-.527-1.82-6.8 1.968.226.837zm6.016-1.742l.29.99c.168.762.19 1.125-.742 1.4l-.743.21c-.936.273-1.263 0-1.478-.753l-.285-.99 2.958-.857z"/>
        <path fill="#9D979B" d="M86.058 39.21c-.253-1.873-1.126-2.105-2.663-1.92l-2.384.326c-1.537.205-2.348.526-2.074 2.558.274 2.031 1.131 2.073 2.49 1.894l-.116-.831c-1.106.152-1.395 0-1.58-1.174-.184-1.174.253-1.426 1.369-1.579l2.395-.326c1.11-.147 1.579-.063 1.737 1.158.157 1.22-.206 1.384-1.053 1.51l.116.848c1.373-.195 2.02-.621 1.763-2.463z"/>
        <path fill="#AE256C" d="M26.742 29.553v-.158l-1.863 1.347-.39 2.132 1.785-1.285-.216-1.184-.058-.331.274-.19z"/>
        <path fill="#AE256C" fill-rule="nonzero" d="M64.01 37.679a3.158 3.158 0 1 0-.004-6.316 3.158 3.158 0 0 0 .005 6.316zm0-5.758l2.237 3.879h-4.484l2.248-3.879z"/>
        <path fill="#AE256C" d="M25.042 29.384h-.79v.169l.28.194zM26.474 32.684L24.232 34.3l-.39 2.137 2.926-2.11zM69.621 34.274l-2-.527c.039.173.064.35.074.527h1.926zM64.247 40.132l.527-1.995a4.21 4.21 0 0 1-.527.074v1.92zM61.29 32.016l-.722-.732.527.937c.059-.074.124-.143.194-.205zM58.421 34.737l1.995.526a4.21 4.21 0 0 1-.074-.526h-1.92zM63.763 28.905l-.526 1.995c.174-.034.35-.056.526-.068v-1.927zM67.242 31.084l-.937.527c.07.052.139.11.206.173l.731-.7zM66.721 37.021l.721.732-.526-.937a1.626 1.626 0 0 1-.195.205zM60.768 37.953l.937-.527a2.053 2.053 0 0 1-.2-.173l-.737.7zM60.695 56.958h1.984v1.99a.558.558 0 0 0 .558.552h1.531a.553.553 0 0 0 .558-.553v-1.99h1.99a.563.563 0 0 0 .558-.557v-1.532a.563.563 0 0 0-.558-.557h-1.99v-1.985a.563.563 0 0 0-.558-.563h-1.531a.568.568 0 0 0-.558.563v1.985h-1.984a.563.563 0 0 0-.558.557V56.4a.563.563 0 0 0 .558.558z"/>
        <path fill="#AE256C" fill-rule="nonzero" d="M39.932 70.39a.437.437 0 0 0 .442.442h8.947a.442.442 0 0 0 .442-.443v-6.8h-9.831v6.8zm4.947-3.511h-1.69v-2.632h3.243v.721h-2.49v1.195h.953c1.3 0 1.737.526 1.737 1.858v.179c0 1.39-.753 1.984-1.81 1.984-1.059 0-1.738-.473-1.738-1.895h.763c0 .811.342 1.153.974 1.153.632 0 1.053-.284 1.053-1.253v-.157c-.01-.927-.221-1.153-.995-1.153z"/>
        <path fill="#AE256C" d="M43.405 26.842v-6.316c-.368-.042-.363-.042-.437.274-.11.437-.231.874-.342 1.305-.262.779-.449 1.58-.558 2.395-.074.58.013 1.168.253 1.7.199.413.626.666 1.084.642z"/>
        <path fill="#AE256C" fill-rule="nonzero" d="M52.947 45.11v-.31h23.574a31.374 31.374 0 0 0-15.768-26.905l-11.806 20.4a8.29 8.29 0 0 0-.431-.227l11.8-20.436a31.395 31.395 0 0 0-30.916.29l11.779 20.42c-.142.084-.279.163-.416.258L28.947 18.168a31.384 31.384 0 0 0-15.263 26.627h23.574v.49H13.71a31.374 31.374 0 0 0 15.236 26.741L40.716 51.58c.137.09.273.168.416.253l-11.79 20.415a31.41 31.41 0 0 0 31.053.29L48.579 52.105l.426-.226L60.79 72.3a31.39 31.39 0 0 0 15.722-27.037H52.93c.006-.037.016-.095.016-.152zm6.842-14.889l2.106 1.268c.32-.23.676-.407 1.052-.526L64 26.853l1.079 4.126c.377.117.732.295 1.053.526l2.152-1.226-1.268 2.105c.232.32.41.675.526 1.053l4.11 1.052-4.126 1.085A3.79 3.79 0 0 1 67 36.626l1.232 2.148-2.106-1.269c-.32.23-.676.408-1.052.527l-1.053 4.11-1.09-4.126c-.374-.123-.729-.3-1.052-.527l-2.142 1.227L61 36.61a3.584 3.584 0 0 1-.526-1.053l-4.11-1.053 4.125-1.084c.116-.378.294-.734.527-1.053l-1.227-2.147zm-31.32 9.1L25.836 41.3l-.31.237-.316-.237-2.632-1.979-.258-.19.053-.315.61-3.358-3.047 2.358-.69-.574 4.406-5.458.226-1.237-.421-.294-.226-.158v-1.763h4.584v1.763l-.227.158-.415.294 1.5 8.269.058.316-.264.19zm1.82 17.226l-4.642 4.642-4.636-4.642a3.405 3.405 0 0 1-1.164-2.594 3.232 3.232 0 0 1 3.121-3.337 3.074 3.074 0 0 1 2.68 1.642 3.095 3.095 0 0 1 2.689-1.642 3.237 3.237 0 0 1 3.12 3.337 3.405 3.405 0 0 1-1.189 2.594h.021zm10.306-30.526a4.684 4.684 0 0 1 .279-2.326c.331-.948.663-1.89.979-2.848a4.5 4.5 0 0 0 .163-.71 1.005 1.005 0 0 0 0-.416c0-.1-.11-.242-.2-.263a.39.39 0 0 0-.305.142c-.216.237-.253.253-.527.042a.742.742 0 0 1 0-1.216 1.226 1.226 0 0 1 1.942.406c.15.293.217.623.19.952v.274h.29v-.526c0-.19.026-.221.168-.21.142.01.147.104.147.21v.494h.274v-.684-.163c0-.047.09-.153.152-.168.064-.016.169.057.169.173v.742a1.205 1.205 0 0 0 0 .132h.258v-.374-.763a.268.268 0 0 1 .142-.195c.126 0 .158.08.158.19v1.137h.29v-.827c0-.076.032-.148.089-.2.115-.079.22 0 .226.163v.864h.31v-.5c0-.164.032-.206.158-.206.127 0 .164.09.158.2v.527h.29v-.527c.014-.47.238-.91.61-1.2a1.247 1.247 0 0 1 1.753.369.8.8 0 0 1-.426 1.052.168.168 0 0 1-.237-.079c-.09-.147-.19-.305-.395-.247-.205.058-.226.269-.195.432.09.533.211 1.06.363 1.579.285.894.632 1.773.921 2.673.216.632.265 1.308.143 1.963a1.81 1.81 0 0 1-1.732 1.58h-.147a.247.247 0 0 0-.269.189.526.526 0 0 1-.495.337h-3.026a.526.526 0 0 1-.526-.363.2.2 0 0 0-.21-.158c-.164 0-.322-.042-.485-.074a1.832 1.832 0 0 1-1.468-1.574l.02-.005zm2.031 3.158c.1-.095.21-.179.31-.279a.237.237 0 0 0 .064-.132c.026-.19.11-.263.31-.263h2.911c.232 0 .3.08.321.295.126.153.216.263.31.363.036.03.08.05.127.058h.374c.168 0 .307.132.315.3a.326.326 0 0 1-.294.316h-5.21a.31.31 0 0 1-.29-.326.3.3 0 0 1 .305-.29h.474a.116.116 0 0 1-.021-.021l-.006-.021zM39.59 45.263a10.584 10.584 0 0 0 3.053 2.842c-.51.25-.987.561-1.42.927a5.553 5.553 0 0 1-1.633-3.769zm2.874 15.263v1.127a.442.442 0 0 1-.879 0v-1.127a.442.442 0 1 1 .88 0zm6.269 1.58a1.2 1.2 0 0 0 .105-.474v-.48h.758a.89.89 0 0 1 .89.89v8.532a.895.895 0 0 1-.89.894H40.12a.905.905 0 0 1-.895-.894v-8.469a.895.895 0 0 1 .895-.89h.753v.48a1.305 1.305 0 0 0 0 .142 1.142 1.142 0 0 0 2.268-.148v-.478h3.39v.478c0 .1.014.2.042.295a1.1 1.1 0 0 0 2.137.18l.02-.059zm-1.474-.474v-1.127a.437.437 0 1 1 .874 0v1.127a.437.437 0 1 1-.874 0zM45.11 50.579a2.4 2.4 0 0 1-.285 0c.162-.474.24-.973.232-1.474a13.195 13.195 0 0 0 4.21-.4 5.474 5.474 0 0 1-4.157 1.937v-.063zm5.42-4.437a9.042 9.042 0 0 1-.847.047c-.38-.013-.76-.06-1.131-.142a3.2 3.2 0 0 1-1.016-.368 1.626 1.626 0 0 1-.816-1.426 1.379 1.379 0 0 1 0-.369.684.684 0 0 1 .121-.29.39.39 0 0 1 .095-.11l.052-.031a1.21 1.21 0 0 1 .464-.232s.036 0 .031-.026c-.005-.027 0 0-.031-.037l-.158-.042-.121-.042a.526.526 0 0 1-.216-.227.647.647 0 0 0-.253-.373.726.726 0 0 0-.526-.142h-.042c-.626.131-.837.879-1.053 1.41-.258.632-1.052.269-1.226.142l-.047-.037a12.784 12.784 0 0 1-2.816-2.505 5.463 5.463 0 0 1 4.094-1.831 5.532 5.532 0 0 1 5.527 5.531c.01.39-.02.78-.09 1.163l.006-.063zm13.474 3.874h5.553v5.558A5.558 5.558 0 1 1 64 50.016h.005z"/>
        <path fill="#AE256C" d="M43.732 20.537h1v6.295h-1zM44.916 20.537h1v6.295h-1zM47.368 25.753c.154-.74.121-1.507-.094-2.232-.232-.91-.49-1.816-.732-2.726-.074-.284-.063-.29-.363-.263h-.074v6.315c.069.004.137.004.206 0 .559-.084.992-.532 1.057-1.094z"/>
        <path fill="#AE256C" d="M44.332 20.537h1v6.3h-1zM25.058 39.9l.437.326 2.068-1.542-.095-.52zM22.384 51.647a.795.795 0 0 0-.626.295l-.069.063a2.584 2.584 0 0 0-.705 2.106c.14.76.535 1.449 1.121 1.952.19.195.39.3.584.116.195-.184-.12-.384-.3-.579-.347-.358-.957-1.753 0-2.353.374-.236.795-.358.795-.8a.8.8 0 0 0-.8-.8zM26.968 35.426l-3.384 2.437-.147.821.774.58 3.057-2.2zM45.5 20.537h1v6.295h-1zM7.632 48.458a1.053 1.053 0 0 0-1.185-1.132 1.1 1.1 0 0 0-1.215 1.232h.526c0-.526.237-.737.658-.737.42 0 .663.21.663.642 0 1.053-1.853.584-1.853 2.442v.863H7.59v-.526h-1.8v-.331c0-1.564 1.843-.864 1.843-2.453z"/>
        <path fill="#AE256C" fill-rule="nonzero" d="M9.374 47.368a1.053 1.053 0 0 0-1.206 1.195v1.984c0 .906.353 1.269 1.206 1.269.852 0 1.163-.363 1.163-1.269v-1.984a1.053 1.053 0 0 0-1.163-1.195zm.62 3.158c0 .6-.22.774-.62.774-.48 0-.663-.174-.663-.774v-1.984c0-.605.257-.716.663-.716.405 0 .62.11.62.716v1.984z"/>
        <path fill="#AE256C" d="M81.81 47.379h-1.094v.484h.552v3.442h-.71v.463h1.931v-.463h-.678z"/>
        <path fill="#AE256C" d="M80.526 51.237h.727v-3.505h-.569v-.49H81.8v3.995h.69v.468h-1.964z"/>
        <path fill="#AE256C" fill-rule="nonzero" d="M83.358 51.663c.508-.323.94-.755 1.263-1.263a2.268 2.268 0 0 1-.595.068 1.053 1.053 0 0 1-1.105-1.179v-.82c0-.922.353-1.29 1.268-1.29.916 0 1.264.368 1.264 1.29v.82a2.916 2.916 0 0 1-1.337 2.416h-.748l-.01-.042zm.11-3.195v.821c0 .558.227.706.721.706.495 0 .716-.148.716-.706v-.82c0-.616-.226-.764-.716-.764-.489 0-.72.148-.72.763z"/>
    </g>
</svg>
